<svg width="512" height="512" viewBox="0 0 512 512" fill="none" xmlns="http://www.w3.org/2000/svg">
<g clip-path="url(#clip0_181_314)">
<path d="M256 0C114.837 0 0 114.837 0 256C0 397.163 114.837 512 256 512C397.163 512 512 397.163 512 256C512 114.837 397.163 0 256 0ZM362.667 282.667C362.667 341.483 314.816 389.333 256 389.333C197.184 389.333 149.333 341.483 149.333 282.667V229.333C149.333 170.517 197.184 122.667 256 122.667C293.973 122.667 329.365 143.104 348.395 176L311.467 197.355C300.053 177.621 278.805 165.355 256.021 165.355C220.736 165.355 192.021 194.069 192.021 229.355V282.688C192.021 317.973 220.736 346.688 256.021 346.688C285.803 346.688 310.869 326.272 317.995 298.688H256.021V256.021H362.688V282.688L362.667 282.667Z" fill="#C1C1C1"/>
</g>
<defs>
<clipPath id="clip0_181_314">
<rect width="512" height="512" fill="white"/>
</clipPath>
</defs>
</svg>
